<?xml version="1.0" encoding="utf-8"?>
<!-- Generator: Adobe Illustrator 24.0.2, SVG Export Plug-In . SVG Version: 6.00 Build 0)  -->
<svg version="1.1" id="Layer_1" xmlns="http://www.w3.org/2000/svg" xmlns:xlink="http://www.w3.org/1999/xlink" x="0px" y="0px"
	 viewBox="0 0 18 17" style="enable-background:new 0 0 18 17;" xml:space="preserve">
<style type="text/css">
	.st0{fill:#FFFFFF;stroke:#FF755D;}
</style>
<path class="st0" d="M8.9,0.5C8.9,1.6,9,2.7,9.3,3.8c0.3,1.1,0.9,2.1,1.8,2.8c0.7,0.5,1.5,0.9,2.4,1.1C14.7,8,16,8.2,17.2,8.4
	c-2.1,0.4-1.7,0.3-2.6,0.6c-1.1,0.3-2.3,0.7-3.3,1.4c-1.1,0.8-1.5,1.9-2,3.1c-0.3,0.9-0.4,1-0.6,2.7c-0.1-1.5-0.2-2.1-0.7-3.1
	c-0.3-0.8-0.7-1.6-1.4-2.3C6.2,10.4,5.7,10,5,9.7C3.7,9.1,2.3,8.6,0.8,8.3C2,8.2,3.3,8,4.5,7.6c1.2-0.4,2.3-1,3.1-2
	C8.6,4.2,8.7,2.4,8.9,0.5z"/>
</svg>
